<?xml version="1.0" standalone="no"?>
<!DOCTYPE svg PUBLIC "-//W3C//DTD SVG 20010904//EN"
 "http://www.w3.org/TR/2001/REC-SVG-20010904/DTD/svg10.dtd">
<svg version="1.0" xmlns="http://www.w3.org/2000/svg"
 width="652.000000pt" height="394.000000pt" viewBox="0 0 652.000000 394.000000"
 preserveAspectRatio="xMidYMid meet">

<g transform="translate(0.000000,394.000000) scale(0.100000,-0.100000)"
fill="#000000" stroke="none">
<path d="M3211 3930 c-115 -15 -258 -56 -350 -101 -97 -48 -200 -143 -244
-226 -38 -71 -66 -187 -68 -283 -1 -50 -6 -83 -13 -85 -6 -1 -51 -10 -101 -19
-116 -22 -202 -62 -269 -126 -74 -70 -96 -123 -97 -242 -2 -122 28 -242 59
-236 16 3 16 2 63 103 74 158 219 239 421 235 79 -2 149 -17 270 -56 43 -14
81 -23 86 -20 5 3 12 56 15 119 18 371 258 626 692 735 109 28 303 52 463 59
193 8 188 24 -23 68 -71 15 -157 31 -190 36 -33 4 -100 15 -150 23 -109 19
-460 29 -564 16z"/>
<path d="M3974 2951 c-80 -23 -140 -59 -193 -116 -45 -49 -95 -146 -106 -208
-4 -20 -12 -40 -18 -44 -6 -3 -49 -5 -96 -4 -108 2 -176 -18 -238 -73 -65 -57
-83 -101 -83 -208 0 -106 7 -110 73 -34 29 34 67 65 102 81 51 25 63 27 153
23 97 -4 101 -5 214 -61 63 -31 120 -57 126 -57 7 0 12 8 12 18 0 35 51 165
85 216 80 121 212 209 367 243 116 26 355 24 492 -5 110 -23 150 -19 104 10
-44 28 -241 110 -356 150 -251 85 -492 111 -638 69z"/>
<path d="M1225 1800 c-100 -16 -231 -121 -355 -284 -78 -105 -89 -115 -150
-147 -35 -18 -61 -23 -120 -23 -136 0 -231 59 -500 314 -56 52 -86 75 -88 65
-2 -8 15 -108 37 -222 22 -115 53 -273 68 -352 23 -125 31 -149 57 -179 48
-55 113 -82 196 -82 39 0 81 5 93 11 114 60 201 154 302 325 32 55 64 108 70
120 31 50 151 57 252 15 115 -47 206 -117 416 -319 130 -125 165 -149 227
-152 99 -6 117 -1 193 50 101 67 186 176 292 372 30 57 47 67 128 74 138 13
279 -74 556 -341 156 -149 184 -164 295 -155 56 5 73 11 134 53 81 56 155 144
238 284 31 54 63 107 69 119 7 11 32 26 54 33 146 43 310 -44 589 -313 172
-167 195 -180 319 -177 44 1 62 8 125 50 43 29 94 75 124 113 55 67 146 210
169 264 7 18 24 39 37 47 55 36 185 29 272 -15 96 -49 203 -135 371 -299 143
-139 177 -159 275 -159 76 0 85 3 167 57 83 54 205 219 294 395 47 94 32 126
-35 74 -70 -53 -117 -70 -196 -70 -61 0 -86 5 -134 27 -88 41 -223 144 -320
244 -142 146 -211 187 -304 184 -100 -3 -241 -112 -374 -288 -101 -136 -191
-185 -306 -168 -111 16 -213 83 -417 274 -77 72 -159 143 -182 157 -60 36
-141 35 -219 -3 -73 -36 -188 -144 -274 -258 -81 -108 -92 -118 -153 -145
-102 -45 -195 -35 -312 35 -69 41 -130 92 -308 257 -135 125 -167 142 -255
139 -100 -3 -245 -116 -380 -296 -76 -100 -111 -128 -190 -151 -67 -20 -138
-13 -210 21 -95 44 -157 92 -348 272 -61 57 -121 111 -133 119 -34 24 -111 41
-156 34z"/>
<path d="M1065 883 c-68 -34 -225 -196 -303 -310 -34 -50 -62 -96 -62 -102 0
-17 23 -13 84 14 87 38 152 35 249 -14 131 -67 208 -125 369 -278 88 -85 174
-158 200 -171 163 -81 350 52 524 374 34 62 52 84 79 97 100 48 266 -11 435
-151 30 -26 114 -103 185 -172 75 -72 150 -135 176 -147 165 -81 350 50 524
371 57 106 81 120 185 114 128 -8 258 -92 498 -321 85 -81 168 -152 194 -165
171 -84 374 72 550 426 59 117 57 141 -9 93 -88 -64 -122 -76 -213 -76 -71 1
-94 5 -141 27 -75 36 -179 118 -325 255 -175 164 -173 163 -266 163 -64 0 -88
-5 -128 -25 -68 -34 -177 -140 -271 -260 -103 -134 -147 -160 -269 -160 -77 0
-91 3 -149 33 -84 44 -152 97 -305 238 -188 175 -186 173 -279 174 -64 0 -87
-5 -128 -25 -68 -35 -187 -150 -276 -268 -96 -127 -139 -152 -263 -152 -77 0
-91 3 -150 33 -81 42 -183 122 -315 251 -57 55 -122 113 -145 130 -40 29 -49
31 -124 31 -67 -1 -90 -5 -131 -27z"/>
</g>
</svg>
